<?xml version="1.0" encoding="UTF-8"?>
<svg id="_レイヤー_2" data-name="レイヤー 2" xmlns="http://www.w3.org/2000/svg" viewBox="0 0 357.16 357.16">
  <defs>
    <style>
      .cls-1 {
        fill: #ff52b7;
        stroke-width: 0px;
      }
    </style>
  </defs>
  <g id="_レイヤー_1-2" data-name="レイヤー 1">
    <g>
      <path class="cls-1" d="M165.59.5l-.8,19c-.17,4.14-3.04,7.65-6.64,8.29-2.23.39-3.72-.48-4.17-2.5-.13-.59-.2-1.26-.24-1.94l-.36-12.37c-.05-1.17-.11-1.94-.29-2.79-.78-3.81-3.74-5.76-7.82-5.04-3.49.62-5.63,2.63-6.94,6.42l-.48-4.42-2.85.5,3.45,26.6,2.42-.43-1.84-16.49c-.53-4.72,2.23-9.02,6.49-9.77,2.58-.46,4.22.66,4.81,3.29.15.68.24,1.45.3,2.28l.56,12.38c.06,1,.12,1.64.29,2.33.7,2.92,3.29,4.3,6.85,3.67,2.99-.53,4.81-1.96,6.3-5.01h0l3.8-24.51-2.83.5Z"/>
      <path class="cls-1" d="M134.86,5.46l2.51,18.85c.55,4.11-1.67,8.06-5.1,9.32-2.13.78-3.75.17-4.54-1.74-.23-.56-.42-1.2-.58-1.87l-2.5-12.12c-.25-1.15-.45-1.89-.77-2.7-1.43-3.62-4.69-5.02-8.57-3.61-3.33,1.21-5.09,3.56-5.72,7.53l-1.24-4.27-2.72.99,8.02,25.6,2.31-.85-4.68-15.92c-1.34-4.55.63-9.27,4.7-10.75,2.47-.9,4.27-.09,5.3,2.41.27.64.49,1.39.69,2.19l2.7,12.09c.23.97.41,1.59.69,2.25,1.2,2.76,3.99,3.66,7.38,2.43,2.85-1.04,4.4-2.77,5.33-6.03h0l-.51-24.79-2.7.98Z"/>
      <path class="cls-1" d="M105.46,15.68l5.75,18.13c1.25,3.95-.24,8.23-3.41,10.06-1.96,1.13-3.66.82-4.77-.92-.32-.51-.62-1.11-.89-1.74l-4.57-11.5c-.45-1.08-.77-1.79-1.22-2.52-2.04-3.32-5.49-4.13-9.07-2.06-3.07,1.77-4.39,4.39-4.32,8.41l-1.97-3.98-2.51,1.45,12.34,23.82,2.12-1.23-7.37-14.86c-2.11-4.25-.98-9.24,2.76-11.4,2.27-1.31,4.19-.83,5.64,1.45.37.59.72,1.28,1.06,2.03l4.76,11.44c.4.92.68,1.5,1.07,2.09,1.66,2.51,4.56,2.92,7.69,1.11,2.63-1.52,3.85-3.49,4.2-6.86h0l-4.81-24.33-2.49,1.44Z"/>
      <path class="cls-1" d="M78.29,30.86l8.81,16.85c1.92,3.67,1.19,8.15-1.61,10.5-1.74,1.46-3.46,1.44-4.86-.08-.41-.44-.8-.99-1.18-1.56l-6.5-10.53c-.63-.99-1.07-1.62-1.64-2.27-2.58-2.91-6.12-3.12-9.29-.46-2.72,2.28-3.56,5.09-2.8,9.03l-2.63-3.58-2.22,1.86,16.29,21.31,1.88-1.58-9.84-13.35c-2.81-3.82-2.57-8.92.74-11.7,2.01-1.69,3.98-1.54,5.81.45.47.51.93,1.14,1.4,1.82l6.67,10.44c.55.84.93,1.36,1.42,1.88,2.07,2.18,5,2.08,7.77-.24,2.32-1.95,3.19-4.1,2.95-7.49h0l-8.96-23.12-2.2,1.85Z"/>
      <path class="cls-1" d="M54.16,50.52l11.6,15.07c2.53,3.28,2.59,7.82.24,10.62-1.46,1.74-3.16,2.02-4.8.76-.48-.37-.96-.83-1.43-1.33l-8.23-9.25c-.79-.86-1.33-1.41-2.01-1.95-3.05-2.42-6.57-2-9.23,1.16-2.28,2.72-2.62,5.63-1.19,9.38l-3.21-3.07-1.86,2.22,19.74,18.16,1.57-1.89-12.01-11.44c-3.44-3.28-4.08-8.34-1.3-11.66,1.69-2.01,3.66-2.21,5.8-.57.55.42,1.11.96,1.69,1.55l8.39,9.12c.69.73,1.15,1.18,1.72,1.6,2.41,1.79,5.29,1.18,7.61-1.59,1.95-2.32,2.43-4.6,1.6-7.89h0l-12.84-21.22-1.85,2.2Z"/>
      <path class="cls-1" d="M33.81,74.07l14.04,12.82c3.06,2.79,3.91,7.25,2.08,10.42-1.13,1.96-2.76,2.54-4.59,1.59-.53-.28-1.09-.65-1.64-1.06l-9.71-7.68c-.93-.71-1.56-1.16-2.32-1.57-3.42-1.85-6.82-.83-8.89,2.75-1.77,3.07-1.61,6,.46,9.45l-3.69-2.47-1.45,2.51,22.59,14.46,1.22-2.13-13.81-9.18c-3.95-2.63-5.47-7.51-3.31-11.25,1.31-2.27,3.22-2.81,5.61-1.57.62.32,1.26.75,1.94,1.23l9.84,7.53c.8.6,1.33.96,1.97,1.28,2.69,1.34,5.41.24,7.22-2.89,1.52-2.63,1.59-4.95.21-8.05h0l-16.33-18.66-1.44,2.49Z"/>
      <path class="cls-1" d="M17.86,100.8l16.06,10.19c3.5,2.22,5.11,6.46,3.86,9.9-.78,2.13-2.28,2.98-4.25,2.36-.58-.18-1.19-.45-1.8-.76l-10.9-5.87c-1.04-.54-1.74-.87-2.56-1.15-3.69-1.23-6.86.36-8.27,4.25-1.21,3.33-.54,6.19,2.09,9.22l-4.07-1.79-.99,2.72,24.76,10.31.83-2.31-15.2-6.65c-4.35-1.9-6.69-6.44-5.21-10.51.9-2.47,2.68-3.33,5.25-2.52.66.21,1.37.52,2.12.88l11,5.7c.89.45,1.48.71,2.16.92,2.88.86,5.37-.7,6.61-4.09,1.04-2.85.71-5.15-1.19-7.96h0l-19.32-15.55-.98,2.7Z"/>
      <path class="cls-1" d="M6.79,129.89l17.58,7.25c3.83,1.58,6.15,5.47,5.52,9.08-.39,2.23-1.72,3.33-3.77,3.06-.6-.08-1.25-.24-1.91-.43l-11.75-3.89c-1.12-.35-1.86-.56-2.72-.69-3.85-.57-6.69,1.55-7.41,5.62-.62,3.49.54,6.19,3.66,8.72l-4.32-1.06-.5,2.85,26.18,5.86.42-2.42-16.12-3.91c-4.61-1.12-7.71-5.18-6.96-9.44.46-2.58,2.06-3.74,4.74-3.39.69.09,1.44.27,2.24.49l11.82,3.71c.96.29,1.58.45,2.29.53,2.99.34,5.17-1.62,5.8-5.18.53-2.99-.2-5.19-2.56-7.63h0l-21.73-11.95-.5,2.83Z"/>
      <path class="cls-1" d="M.95,160.46l18.57,4.08c4.05.89,7.01,4.32,7.01,7.98,0,2.27-1.12,3.58-3.18,3.67-.6.03-1.27-.02-1.95-.1l-12.25-1.79c-1.16-.15-1.93-.23-2.8-.2-3.89.11-6.32,2.69-6.32,6.82,0,3.55,1.61,6,5.12,7.95l-4.43-.29v2.89s26.8,1.22,26.8,1.22v-2.46s-16.56-1.05-16.56-1.05c-4.74-.3-8.49-3.77-8.49-8.09,0-2.62,1.38-4.04,4.07-4.16.69-.03,1.47.02,2.29.1l12.29,1.6c.99.12,1.63.16,2.35.12,3-.18,4.81-2.49,4.81-6.11,0-3.03-1.09-5.08-3.84-7.07h0l-23.47-8v2.88Z"/>
      <path class="cls-1" d="M.5,191.58l19,.8c4.14.17,7.65,3.04,8.29,6.64.39,2.23-.48,3.72-2.5,4.17-.59.13-1.26.2-1.94.24l-12.37.36c-1.17.05-1.94.11-2.79.29-3.81.78-5.76,3.74-5.04,7.82.62,3.49,2.63,5.63,6.42,6.94l-4.42.48.5,2.85,26.6-3.45-.43-2.42-16.49,1.84c-4.72.53-9.02-2.23-9.77-6.49-.46-2.58.66-4.22,3.29-4.81.68-.15,1.45-.24,2.28-.3l12.38-.56c1-.06,1.64-.12,2.33-.29,2.92-.7,4.3-3.29,3.67-6.85-.53-2.99-1.96-4.81-5.01-6.3h0l-24.51-3.8.5,2.83Z"/>
      <path class="cls-1" d="M5.46,222.3l18.85-2.51c4.11-.55,8.06,1.67,9.32,5.1.78,2.13.17,3.75-1.74,4.54-.56.23-1.2.42-1.87.58l-12.12,2.5c-1.15.25-1.89.45-2.7.77-3.62,1.43-5.02,4.69-3.61,8.57,1.21,3.33,3.56,5.09,7.53,5.72l-4.27,1.24.99,2.72,25.6-8.02-.85-2.31-15.92,4.68c-4.55,1.34-9.27-.63-10.75-4.7-.9-2.47-.09-4.27,2.41-5.3.64-.27,1.39-.49,2.19-.69l12.09-2.7c.97-.23,1.59-.41,2.25-.69,2.76-1.2,3.66-3.99,2.43-7.38-1.04-2.85-2.77-4.4-6.03-5.33h0l-24.79.51.98,2.7Z"/>
      <path class="cls-1" d="M15.68,251.7l18.13-5.75c3.95-1.25,8.23.24,10.06,3.41,1.13,1.96.82,3.66-.92,4.77-.51.32-1.11.62-1.74.89l-11.5,4.57c-1.08.45-1.79.77-2.52,1.22-3.32,2.04-4.13,5.49-2.06,9.07,1.77,3.07,4.39,4.39,8.41,4.32l-3.98,1.97,1.45,2.51,23.82-12.34-1.23-2.12-14.86,7.37c-4.25,2.11-9.24.98-11.4-2.76-1.31-2.27-.83-4.19,1.45-5.64.59-.37,1.28-.72,2.03-1.06l11.44-4.76c.92-.4,1.5-.68,2.09-1.07,2.51-1.66,2.92-4.56,1.11-7.69-1.52-2.63-3.49-3.85-6.86-4.2h0l-24.33,4.81,1.44,2.49Z"/>
      <path class="cls-1" d="M30.86,278.88l16.85-8.81c3.67-1.92,8.15-1.19,10.5,1.61,1.46,1.74,1.44,3.46-.08,4.86-.44.41-.99.8-1.56,1.18l-10.53,6.5c-.99.63-1.62,1.07-2.27,1.64-2.91,2.58-3.12,6.12-.46,9.29,2.28,2.72,5.09,3.56,9.03,2.8l-3.58,2.63,1.86,2.22,21.31-16.29-1.58-1.88-13.35,9.84c-3.82,2.81-8.92,2.57-11.7-.74-1.69-2.01-1.54-3.98.45-5.81.51-.47,1.14-.93,1.82-1.4l10.44-6.67c.84-.55,1.36-.93,1.88-1.42,2.18-2.07,2.08-5-.24-7.77-1.95-2.32-4.1-3.19-7.49-2.95h0l-23.12,8.96,1.85,2.2Z"/>
      <path class="cls-1" d="M50.52,303.01l15.07-11.6c3.28-2.53,7.82-2.59,10.62-.24,1.74,1.46,2.02,3.16.76,4.8-.37.48-.83.96-1.33,1.43l-9.25,8.23c-.86.79-1.41,1.33-1.95,2.01-2.42,3.05-2,6.57,1.16,9.23,2.72,2.28,5.63,2.62,9.38,1.19l-3.07,3.21,2.22,1.86,18.16-19.74-1.89-1.57-11.44,12.01c-3.28,3.44-8.34,4.08-11.66,1.3-2.01-1.69-2.21-3.66-.57-5.8.42-.55.96-1.11,1.55-1.69l9.12-8.39c.73-.69,1.18-1.15,1.6-1.72,1.79-2.41,1.18-5.29-1.59-7.61-2.32-1.95-4.6-2.43-7.89-1.6h0l-21.22,12.84,2.2,1.85Z"/>
      <path class="cls-1" d="M74.07,323.35l12.82-14.04c2.79-3.06,7.25-3.91,10.42-2.08,1.96,1.13,2.54,2.76,1.59,4.59-.28.53-.65,1.09-1.06,1.64l-7.68,9.71c-.71.93-1.16,1.56-1.57,2.32-1.85,3.42-.83,6.82,2.75,8.89,3.07,1.77,6,1.61,9.45-.46l-2.47,3.69,2.51,1.45,14.46-22.59-2.13-1.22-9.18,13.81c-2.63,3.95-7.51,5.47-11.25,3.31-2.27-1.31-2.81-3.22-1.57-5.61.32-.62.75-1.26,1.23-1.94l7.53-9.84c.6-.8.96-1.33,1.28-1.97,1.34-2.69.24-5.41-2.89-7.22-2.63-1.52-4.95-1.59-8.05-.21h0l-18.66,16.33,2.49,1.44Z"/>
      <path class="cls-1" d="M100.8,339.3l10.19-16.06c2.22-3.5,6.46-5.11,9.9-3.86,2.13.78,2.98,2.28,2.36,4.25-.18.58-.45,1.19-.76,1.8l-5.87,10.9c-.54,1.04-.87,1.74-1.15,2.56-1.23,3.69.36,6.86,4.25,8.27,3.33,1.21,6.19.54,9.22-2.09l-1.79,4.07,2.72.99,10.31-24.76-2.31-.83-6.65,15.2c-1.9,4.35-6.44,6.69-10.51,5.21-2.47-.9-3.33-2.68-2.52-5.25.21-.66.52-1.37.88-2.12l5.7-11c.45-.89.71-1.48.92-2.16.86-2.88-.7-5.37-4.09-6.61-2.85-1.04-5.15-.71-7.96,1.19h0l-15.55,19.32,2.7.98Z"/>
      <path class="cls-1" d="M129.89,350.37l7.25-17.58c1.58-3.83,5.47-6.15,9.08-5.52,2.23.39,3.33,1.72,3.06,3.77-.08.6-.24,1.25-.43,1.91l-3.89,11.75c-.35,1.12-.56,1.86-.69,2.72-.57,3.85,1.55,6.69,5.62,7.41,3.49.62,6.19-.54,8.72-3.66l-1.06,4.32,2.85.5,5.86-26.18-2.42-.42-3.91,16.12c-1.12,4.61-5.18,7.71-9.44,6.96-2.58-.46-3.74-2.06-3.39-4.74.09-.69.27-1.44.49-2.24l3.71-11.82c.29-.96.45-1.58.53-2.29.34-2.99-1.62-5.17-5.18-5.8-2.99-.53-5.19.2-7.63,2.56h0l-11.95,21.73,2.83.5Z"/>
      <path class="cls-1" d="M160.46,356.22l4.08-18.57c.89-4.05,4.32-7.01,7.98-7.01,2.27,0,3.58,1.12,3.67,3.18.03.6-.02,1.27-.1,1.95l-1.79,12.25c-.15,1.16-.23,1.93-.2,2.8.11,3.89,2.69,6.32,6.82,6.32,3.55,0,6-1.61,7.95-5.12l-.29,4.43h2.89s1.22-26.8,1.22-26.8h-2.46s-1.05,16.56-1.05,16.56c-.3,4.74-3.77,8.49-8.09,8.49-2.62,0-4.04-1.38-4.16-4.07-.03-.69.02-1.47.1-2.29l1.6-12.29c.12-.99.16-1.63.12-2.35-.18-3-2.49-4.81-6.11-4.81-3.03,0-5.08,1.09-7.07,3.84h0l-8,23.47h2.88Z"/>
      <path class="cls-1" d="M191.58,356.66l.8-19c.17-4.14,3.04-7.65,6.64-8.29,2.23-.39,3.72.48,4.17,2.5.13.59.2,1.26.24,1.94l.36,12.37c.05,1.17.11,1.94.29,2.79.78,3.81,3.74,5.76,7.82,5.04,3.49-.62,5.63-2.63,6.94-6.42l.48,4.42,2.85-.5-3.45-26.6-2.42.43,1.84,16.49c.53,4.72-2.23,9.02-6.49,9.77-2.58.46-4.22-.66-4.81-3.29-.15-.68-.24-1.45-.3-2.28l-.56-12.38c-.06-1-.12-1.64-.29-2.33-.7-2.92-3.29-4.3-6.85-3.67-2.99.53-4.81,1.96-6.3,5.01h0l-3.8,24.51,2.83-.5Z"/>
      <path class="cls-1" d="M222.3,351.7l-2.51-18.85c-.55-4.11,1.67-8.06,5.1-9.32,2.13-.78,3.75-.17,4.54,1.74.23.56.42,1.2.58,1.87l2.5,12.12c.25,1.15.45,1.89.77,2.7,1.43,3.62,4.69,5.02,8.57,3.61,3.33-1.21,5.09-3.56,5.72-7.53l1.24,4.27,2.72-.99-8.02-25.6-2.31.85,4.68,15.92c1.34,4.55-.63,9.27-4.7,10.75-2.47.9-4.27.09-5.3-2.41-.27-.64-.49-1.39-.69-2.19l-2.7-12.09c-.23-.97-.41-1.59-.69-2.25-1.2-2.76-3.99-3.66-7.38-2.43-2.85,1.04-4.4,2.77-5.33,6.03h0l.51,24.79,2.7-.98Z"/>
      <path class="cls-1" d="M251.7,341.48l-5.75-18.13c-1.25-3.95.24-8.23,3.41-10.06,1.96-1.13,3.66-.82,4.77.92.32.51.62,1.11.89,1.74l4.57,11.5c.45,1.08.77,1.79,1.22,2.52,2.04,3.32,5.49,4.13,9.07,2.06,3.07-1.77,4.39-4.39,4.32-8.41l1.97,3.98,2.51-1.45-12.34-23.82-2.12,1.23,7.37,14.86c2.11,4.25.98,9.24-2.76,11.4-2.27,1.31-4.19.83-5.64-1.45-.37-.59-.72-1.28-1.06-2.03l-4.76-11.44c-.4-.92-.68-1.5-1.07-2.09-1.66-2.51-4.56-2.92-7.69-1.11-2.63,1.52-3.85,3.49-4.2,6.86h0l4.81,24.33,2.49-1.44Z"/>
      <path class="cls-1" d="M278.88,326.31l-8.81-16.85c-1.92-3.67-1.19-8.15,1.61-10.5,1.74-1.46,3.46-1.44,4.86.08.41.44.8.99,1.18,1.56l6.5,10.53c.63.99,1.07,1.62,1.64,2.27,2.58,2.91,6.12,3.12,9.29.46,2.72-2.28,3.56-5.09,2.8-9.03l2.63,3.58,2.22-1.86-16.29-21.31-1.88,1.58,9.84,13.35c2.81,3.82,2.57,8.92-.74,11.7-2.01,1.69-3.98,1.54-5.81-.45-.47-.51-.93-1.14-1.4-1.82l-6.67-10.44c-.55-.84-.93-1.36-1.42-1.88-2.07-2.18-5-2.08-7.77.24-2.32,1.95-3.19,4.1-2.95,7.49h0l8.96,23.12,2.2-1.85Z"/>
      <path class="cls-1" d="M303.01,306.65l-11.6-15.07c-2.53-3.28-2.59-7.82-.24-10.62,1.46-1.74,3.16-2.02,4.8-.76.48.37.96.83,1.43,1.33l8.23,9.25c.79.86,1.33,1.41,2.01,1.95,3.05,2.42,6.57,2,9.23-1.16,2.28-2.72,2.62-5.63,1.19-9.38l3.21,3.07,1.86-2.22-19.74-18.16-1.57,1.89,12.01,11.44c3.44,3.28,4.08,8.34,1.3,11.66-1.69,2.01-3.66,2.21-5.8.57-.55-.42-1.11-.96-1.69-1.55l-8.39-9.12c-.69-.73-1.15-1.18-1.72-1.6-2.41-1.79-5.29-1.18-7.61,1.59-1.95,2.32-2.43,4.6-1.6,7.89h0l12.84,21.22,1.85-2.2Z"/>
      <path class="cls-1" d="M323.35,283.1l-14.04-12.82c-3.06-2.79-3.91-7.25-2.08-10.42,1.13-1.96,2.76-2.54,4.59-1.59.53.28,1.09.65,1.64,1.06l9.71,7.68c.93.71,1.56,1.16,2.32,1.57,3.42,1.85,6.82.83,8.89-2.75,1.77-3.07,1.61-6-.46-9.45l3.69,2.47,1.45-2.51-22.59-14.46-1.22,2.13,13.81,9.18c3.95,2.63,5.47,7.51,3.31,11.25-1.31,2.27-3.22,2.81-5.61,1.57-.62-.32-1.26-.75-1.94-1.23l-9.84-7.53c-.8-.6-1.33-.96-1.97-1.28-2.69-1.34-5.41-.24-7.22,2.89-1.52,2.63-1.59,4.95-.21,8.05h0l16.33,18.66,1.44-2.49Z"/>
      <path class="cls-1" d="M339.3,256.37l-16.06-10.19c-3.5-2.22-5.11-6.46-3.86-9.9.78-2.13,2.28-2.98,4.25-2.36.58.18,1.19.45,1.8.76l10.9,5.87c1.04.54,1.74.87,2.56,1.15,3.69,1.23,6.86-.36,8.27-4.25,1.21-3.33.54-6.19-2.09-9.22l4.07,1.79.99-2.72-24.76-10.31-.83,2.31,15.2,6.65c4.35,1.9,6.69,6.44,5.21,10.51-.9,2.47-2.68,3.33-5.25,2.52-.66-.21-1.37-.52-2.12-.88l-11-5.7c-.89-.45-1.48-.71-2.16-.92-2.88-.86-5.37.7-6.61,4.09-1.04,2.85-.71,5.15,1.19,7.96h0l19.32,15.55.98-2.7Z"/>
      <path class="cls-1" d="M350.37,227.28l-17.58-7.25c-3.83-1.58-6.15-5.47-5.52-9.08.39-2.23,1.72-3.33,3.77-3.06.6.08,1.25.24,1.91.43l11.75,3.89c1.12.35,1.86.56,2.72.69,3.85.57,6.69-1.55,7.41-5.62.62-3.49-.54-6.19-3.66-8.72l4.32,1.06.5-2.85-26.18-5.86-.42,2.42,16.12,3.91c4.61,1.12,7.71,5.18,6.96,9.44-.46,2.58-2.06,3.74-4.74,3.39-.69-.09-1.44-.27-2.24-.49l-11.82-3.71c-.96-.29-1.58-.45-2.29-.53-2.99-.34-5.17,1.62-5.8,5.18-.53,2.99.2,5.19,2.56,7.63h0l21.73,11.95.5-2.83Z"/>
      <path class="cls-1" d="M356.22,196.71l-18.57-4.08c-4.05-.89-7.01-4.32-7.01-7.98,0-2.27,1.12-3.58,3.18-3.67.6-.03,1.27.02,1.95.1l12.25,1.79c1.16.15,1.93.23,2.8.2,3.89-.11,6.32-2.69,6.32-6.82,0-3.55-1.61-6-5.12-7.95l4.43.29v-2.89s-26.8-1.22-26.8-1.22v2.46s16.56,1.05,16.56,1.05c4.74.3,8.49,3.77,8.49,8.09,0,2.62-1.38,4.04-4.07,4.16-.69.03-1.47-.02-2.29-.1l-12.29-1.6c-.99-.12-1.63-.16-2.35-.12-3,.18-4.81,2.49-4.81,6.11,0,3.03,1.09,5.08,3.84,7.07h0l23.47,8v-2.88Z"/>
      <path class="cls-1" d="M356.66,165.59l-19-.8c-4.14-.17-7.65-3.04-8.29-6.64-.39-2.23.48-3.72,2.5-4.17.59-.13,1.26-.2,1.94-.24l12.37-.36c1.17-.05,1.94-.11,2.79-.29,3.81-.78,5.76-3.74,5.04-7.82-.62-3.49-2.63-5.63-6.42-6.94l4.42-.48-.5-2.85-26.6,3.45.43,2.42,16.49-1.84c4.72-.53,9.02,2.23,9.77,6.49.46,2.58-.66,4.22-3.29,4.81-.68.15-1.45.24-2.28.3l-12.38.56c-1,.06-1.64.12-2.33.29-2.92.7-4.3,3.29-3.67,6.85.53,2.99,1.96,4.81,5.01,6.3h0l24.51,3.8-.5-2.83Z"/>
      <path class="cls-1" d="M351.7,134.86l-18.85,2.51c-4.11.55-8.06-1.67-9.32-5.1-.78-2.13-.17-3.75,1.74-4.54.56-.23,1.2-.42,1.87-.58l12.12-2.5c1.15-.25,1.89-.45,2.7-.77,3.62-1.43,5.02-4.69,3.61-8.57-1.21-3.33-3.56-5.09-7.53-5.72l4.27-1.24-.99-2.72-25.6,8.02.85,2.31,15.92-4.68c4.55-1.34,9.27.63,10.75,4.7.9,2.47.09,4.27-2.41,5.3-.64.27-1.39.49-2.19.69l-12.09,2.7c-.97.23-1.59.41-2.25.69-2.76,1.2-3.66,3.99-2.43,7.38,1.04,2.85,2.77,4.4,6.03,5.33h0l24.79-.51-.98-2.7Z"/>
      <path class="cls-1" d="M341.48,105.46l-18.13,5.75c-3.95,1.25-8.23-.24-10.06-3.41-1.13-1.96-.82-3.66.92-4.77.51-.32,1.11-.62,1.74-.89l11.5-4.57c1.08-.45,1.79-.77,2.52-1.22,3.32-2.04,4.13-5.49,2.06-9.07-1.77-3.07-4.39-4.39-8.41-4.32l3.98-1.97-1.45-2.51-23.82,12.34,1.23,2.12,14.86-7.37c4.25-2.11,9.24-.98,11.4,2.76,1.31,2.27.83,4.19-1.45,5.64-.59.37-1.28.72-2.03,1.06l-11.44,4.76c-.92.4-1.5.68-2.09,1.07-2.51,1.66-2.92,4.56-1.11,7.69,1.52,2.63,3.49,3.85,6.86,4.2h0l24.33-4.81-1.44-2.49Z"/>
      <path class="cls-1" d="M326.31,78.29l-16.85,8.81c-3.67,1.92-8.15,1.19-10.5-1.61-1.46-1.74-1.44-3.46.08-4.86.44-.41.99-.8,1.56-1.18l10.53-6.5c.99-.63,1.62-1.07,2.27-1.64,2.91-2.58,3.12-6.12.46-9.29-2.28-2.72-5.09-3.56-9.03-2.8l3.58-2.63-1.86-2.22-21.31,16.29,1.58,1.88,13.35-9.84c3.82-2.81,8.92-2.57,11.7.74,1.69,2.01,1.54,3.98-.45,5.81-.51.47-1.14.93-1.82,1.4l-10.44,6.67c-.84.55-1.36.93-1.88,1.42-2.18,2.07-2.08,5,.24,7.77,1.95,2.32,4.1,3.19,7.49,2.95h0l23.12-8.96-1.85-2.2Z"/>
      <path class="cls-1" d="M306.65,54.16l-15.07,11.6c-3.28,2.53-7.82,2.59-10.62.24-1.74-1.46-2.02-3.16-.76-4.8.37-.48.83-.96,1.33-1.43l9.25-8.23c.86-.79,1.41-1.33,1.95-2.01,2.42-3.05,2-6.57-1.16-9.23-2.72-2.28-5.63-2.62-9.38-1.19l3.07-3.21-2.22-1.86-18.16,19.74,1.89,1.57,11.44-12.01c3.28-3.44,8.34-4.08,11.66-1.3,2.01,1.69,2.21,3.66.57,5.8-.42.55-.96,1.11-1.55,1.69l-9.12,8.39c-.73.69-1.18,1.15-1.6,1.72-1.79,2.41-1.18,5.29,1.59,7.61,2.32,1.95,4.6,2.43,7.89,1.6h0l21.22-12.84-2.2-1.85Z"/>
      <path class="cls-1" d="M283.1,33.81l-12.82,14.04c-2.79,3.06-7.25,3.91-10.42,2.08-1.96-1.13-2.54-2.76-1.59-4.59.28-.53.65-1.09,1.06-1.64l7.68-9.71c.71-.93,1.16-1.56,1.57-2.32,1.85-3.42.83-6.82-2.75-8.89-3.07-1.77-6-1.61-9.45.46l2.47-3.69-2.51-1.45-14.46,22.59,2.13,1.22,9.18-13.81c2.63-3.95,7.51-5.47,11.25-3.31,2.27,1.31,2.81,3.22,1.57,5.61-.32.62-.75,1.26-1.23,1.94l-7.53,9.84c-.6.8-.96,1.33-1.28,1.97-1.34,2.69-.24,5.41,2.89,7.22,2.63,1.52,4.95,1.59,8.05.21h0l18.66-16.33-2.49-1.44Z"/>
      <path class="cls-1" d="M256.37,17.86l-10.19,16.06c-2.22,3.5-6.46,5.11-9.9,3.86-2.13-.78-2.98-2.28-2.36-4.25.18-.58.45-1.19.76-1.8l5.87-10.9c.54-1.04.87-1.74,1.15-2.56,1.23-3.69-.36-6.86-4.25-8.27-3.33-1.21-6.19-.54-9.22,2.09l1.79-4.07-2.72-.99-10.31,24.76,2.31.83,6.65-15.2c1.9-4.35,6.44-6.69,10.51-5.21,2.47.9,3.33,2.68,2.52,5.25-.21.66-.52,1.37-.88,2.12l-5.7,11c-.45.89-.71,1.48-.92,2.16-.86,2.88.7,5.37,4.09,6.61,2.85,1.04,5.15.71,7.96-1.19h0l15.55-19.32-2.7-.98Z"/>
      <path class="cls-1" d="M227.28,6.79l-7.25,17.58c-1.58,3.83-5.47,6.15-9.08,5.52-2.23-.39-3.33-1.72-3.06-3.77.08-.6.24-1.25.43-1.91l3.89-11.75c.35-1.12.56-1.86.69-2.72.57-3.85-1.55-6.69-5.62-7.41-3.49-.62-6.19.54-8.72,3.66l1.06-4.32-2.85-.5-5.86,26.18,2.42.42,3.91-16.12c1.12-4.61,5.18-7.71,9.44-6.96,2.58.46,3.74,2.06,3.39,4.74-.09.69-.27,1.44-.49,2.24l-3.71,11.82c-.29.96-.45,1.58-.53,2.29-.34,2.99,1.62,5.17,5.18,5.8,2.99.53,5.19-.2,7.63-2.56h0l11.95-21.73-2.83-.5Z"/>
      <path class="cls-1" d="M196.71.95l-4.08,18.57c-.89,4.05-4.32,7.01-7.98,7.01-2.27,0-3.58-1.12-3.67-3.18-.03-.6.02-1.27.1-1.95l1.79-12.25c.15-1.16.23-1.93.2-2.8-.11-3.89-2.69-6.32-6.82-6.32-3.55,0-6,1.61-7.95,5.12l.29-4.43h-2.89l-1.22,26.8h2.46s1.05-16.56,1.05-16.56c.3-4.74,3.77-8.49,8.09-8.49,2.62,0,4.04,1.38,4.16,4.07.03.69-.02,1.47-.1,2.29l-1.6,12.29c-.12.99-.16,1.63-.12,2.35.18,3,2.49,4.81,6.11,4.81,3.03,0,5.08-1.09,7.07-3.84h0l8-23.47h-2.88Z"/>
    </g>
  </g>
</svg>